SplineFontDB: 3.0
FontName: ProtoSinaiticPetroglyph
FullName: Proto-Sinaitic Petroglyph
FamilyName: Proto-Sinaitic Petroglyph
Weight: Medium
Copyright: (C) 2011 Thomas Kaeding
UComments: ""
Version: 1.001
ItalicAngle: 0
UnderlinePosition: -100
UnderlineWidth: 50
Ascent: 1000
Descent: 200
LayerCount: 2
Layer: 0 0 "Back"  1
Layer: 1 0 "Fore"  0
NeedsXUIDChange: 1
XUID: [1021 114 24073053 856538]
OS2Version: 0
OS2_WeightWidthSlopeOnly: 0
OS2_UseTypoMetrics: 1
CreationTime: 1320177715
ModificationTime: 1320181737
OS2TypoAscent: 0
OS2TypoAOffset: 1
OS2TypoDescent: 0
OS2TypoDOffset: 1
OS2TypoLinegap: 0
OS2WinAscent: 0
OS2WinAOffset: 1
OS2WinDescent: 0
OS2WinDOffset: 1
HheadAscent: 0
HheadAOffset: 1
HheadDescent: 0
HheadDOffset: 1
OS2Vendor: 'PfEd'
DEI: 91125
Encoding: ISO8859-1
UnicodeInterp: none
NameList: Adobe Glyph List
DisplaySize: -36
AntiAlias: 1
FitToEm: 1
WinInfo: 40 8 14
BeginChars: 256 39

StartChar: A
Encoding: 65 65 1
Width: 929
VWidth: 0
Flags: HW
LayerCount: 2
Fore
SplineSet
590 564 m 5
 589.907173571 542.250430415 342.023082714 518.232790464 341 558 c 5
 332 474 307.033522675 419.55702268 242 366 c 4
 191.000003815 324 140.168955719 308.657222801 117.099609375 244.83203125 c 28
 99.5322265625 196.23046875 102.808716552 132.841201652 152 117 c 28
 233.053710938 90.8984375 290.890362167 123.061987893 365 165 c 28
 447.805664062 211.859375 492.265474582 253.124108259 539 336 c 28
 583.755859375 415.368164062 581 474 590 564 c 5
84.099609375 778.83203125 m 4
 84.099609375 778.83203125 176.000003815 786 176.000003815 780 c 4
 176.000003815 737.588263657 187.419004298 706.905349901 221.000015259 681 c 28
 275.5390625 638.926757812 317.789110609 627.58335024 386.000015259 618 c 28
 462.609375 607.236328125 508.411145568 613.535097691 584.000015259 630 c 28
 628.993164062 639.80078125 657.505867496 650.406242386 689.000015259 684 c 28
 714.3046875 710.9921875 719.000015259 737.001655366 719.000015259 774 c 4
 719.000015259 777 798.099609375 775.83203125 798.099609375 775.83203125 c 4
 801.099609375 730.83203125 805.1435671 697.616202923 780.099609375 658.83203125 c 28
 751.499023438 614.540039062 671 582 671 579 c 4
 671 475.053710938 678.099609375 394.83203125 630.099609375 307.83203125 c 4
 574.147460938 206.418945312 513.71078615 142.862578521 405.099609375 82.83203125 c 28
 306.607421875 28.39453125 233.362333634 10.7941442267 122.000003815 27 c 28
 65.3623046875 35.2421875 40.8582068399 82.7274875574 26.0000038147 138 c 28
 8.8583984375 201.766601562 13.5183151942 249.08803152 47 306 c 28
 89.0361328125 377.453125 155.264591027 381.0390465 207.099609375 445.83203125 c 4
 243.099998474 490.831970215 252.099609375 489.541015625 252.099609375 562.83203125 c 4
 252.099609375 565.83203125 174.037176983 587.340872897 144.099609375 625.83203125 c 28
 104.75 676.424804688 84.099609375 718.83203125 84.099609375 778.83203125 c 4
EndSplineSet
EndChar

StartChar: B
Encoding: 66 66 2
Width: 1027
VWidth: 0
Flags: HW
LayerCount: 2
Fore
SplineSet
0 0 m 29
 0 630 l 29
 866 627 l 29
 883.999969482 0 l 29
 389 0 l 29
 383 96 l 29
 800 93 l 21
 799.8203125 215.752929688 789.231445312 401.890625 791 549 c 13
 74 549 l 29
 71 0 l 29
 0 0 l 29
EndSplineSet
EndChar

StartChar: G
Encoding: 71 71 3
Width: 1045
VWidth: 0
Flags: HW
LayerCount: 2
Fore
SplineSet
0 519 m 29
 80 564 l 29
 398.000015259 78 l 29
 925.999969482 78 l 29
 931.999969482 0 l 29
 359.000015259 0 l 29
 0 519 l 29
EndSplineSet
EndChar

StartChar: D
Encoding: 68 68 4
Width: 1000
VWidth: 0
Flags: H
LayerCount: 2
Fore
SplineSet
602 477 m 29
 374.000015259 363 l 29
 620 228 l 29
 755 378 l 29
 602 477 l 29
191.000003815 378 m 29
 59 435 l 29
 59.0000038147 321 l 29
 191.000003815 378 l 29
0 552 m 29
 287.000015259 405 l 29
 551 534 l 29
 443 618 l 29
 494.000015259 681 l 29
 874.999969482 384 l 29
 551.000015259 0 l 29
 485.000015259 60 l 29
 578.000015259 168 l 29
 284.000015259 327 l 29
 0 198 l 29
 0 552 l 29
EndSplineSet
EndChar

StartChar: E
Encoding: 69 69 5
Width: 798
VWidth: 0
Flags: HW
LayerCount: 2
Fore
SplineSet
317.000015259 606 m 28
 351.131835938 610.375976562 369.762325167 643.634746641 368 678 c 28
 366.549804688 706.28515625 339.092763963 726.601636405 311 723 c 28
 278.17578125 718.791992188 249.305182689 696.048853523 251 663 c 28
 252.7421875 629.034179688 283.265590504 601.675073749 317.000015259 606 c 28
0 588 m 29
 65.0000038147 597 l 29
 122 435 l 29
 287.000015259 429 l 29
 287.000015259 543 l 21
 254.000015259 552 192.377580276 563.840723252 179 612 c 28
 162.858398438 670.108398438 178.4308907 723.247738988 227 759 c 28
 279.900390625 797.940429688 338.742027808 804.908914746 395 771 c 28
 446.026367188 740.244140625 465.828868979 683.181843065 446 627 c 4
 428.000015259 576 398.000015259 558 356.000015259 546 c 13
 365.000015259 426 l 29
 536.000015259 420 l 29
 596 603 l 29
 665.000015259 588 l 29
 581 357 l 29
 368.000015259 363 l 29
 359 171 l 29
 479.000015259 18 l 29
 419.000015259 -18 l 29
 320.000015259 102 l 29
 230.000015259 -18 l 29
 161 24 l 29
 284 168 l 29
 281 360 l 29
 62.0000038147 363 l 29
 0 588 l 29
EndSplineSet
EndChar

StartChar: W
Encoding: 87 87 6
Width: 533
VWidth: 0
Flags: HW
LayerCount: 2
Fore
SplineSet
206 546 m 28
 257.34375 559.040039062 316.685203403 595.06530804 299 645 c 28
 279.357421875 700.462890625 212.028324011 704.483383876 155 690 c 28
 115.947265625 680.08203125 96.5483038757 634.981259645 110 597 c 28
 124.153320312 557.037109375 164.909231462 535.56424926 206 546 c 28
239 0 m 21
 210 0 181 0 152 0 c 13
 158 477 l 21
 95.0000038147 477 40.1068465488 508.292781281 20 570 c 28
 -1.908203125 637.235351562 8.73717925702 710.473865754 71 744 c 28
 160.646484375 792.271484375 248.31663259 795.998373453 332 738 c 28
 398.76171875 691.729492188 420.235856522 600.78516383 374 534 c 4
 347.000015259 495 302 474 242 468 c 13
 239 0 l 21
EndSplineSet
EndChar

StartChar: Z
Encoding: 90 90 7
Width: 646
VWidth: 0
Flags: HW
LayerCount: 2
Fore
SplineSet
62 357 m 29
 65.0000038147 456 l 29
 497.000015259 459 l 29
 488 363 l 29
 62 357 l 29
44 90 m 29
 47.0000038147 186 l 29
 491 186 l 29
 485 93 l 29
 44 90 l 29
EndSplineSet
EndChar

StartChar: H
Encoding: 72 72 8
Width: 1000
VWidth: 0
Flags: H
LayerCount: 2
Fore
SplineSet
470 651 m 29
 482.000015259 105 l 29
 623 102 l 29
 620 651 l 29
 470 651 l 29
248 648 m 29
 254 105 l 29
 398 102 l 29
 389 648 l 29
 248 648 l 29
0 0 m 29
 0 102 l 29
 152.000003815 102 l 29
 152 654 l 29
 0 657 l 29
 0 735 l 29
 851 735 l 29
 854 654 l 29
 701 651 l 29
 722 99 l 29
 857 96 l 21
 856.999969482 51 860 54 857 0 c 13
 0 0 l 29
EndSplineSet
EndChar

StartChar: Y
Encoding: 89 89 9
Width: 1023
VWidth: 0
Flags: HW
LayerCount: 2
Fore
SplineSet
0 390 m 4
 0 387 92.0000038147 384 92.0000038147 381 c 4
 92.0000038147 311.811180369 74.8463381579 262.911035747 95 192 c 28
 108.188476562 145.59765625 122.389648438 97.1005859375 173 96 c 5
 296.049804688 85.677734375 544.092773438 94.6689453125 536 93 c 5
 536.000015259 180 527.899409562 233.723636777 581.000015259 294 c 28
 628.487304688 347.904296875 686 345 758 345 c 5
 800 345 854.000976562 348.001953125 902 345 c 5
 904.994140625 344.8125 908.708007812 249 902 249 c 4
 851 249 772.999969482 255 713 252 c 5
 662.000015259 246 652.166418751 225.453566477 632 189 c 13
 629.66015625 151.559570312 623.00414651 92.8423235427 626 93 c 4
 683.000015259 96 806 87 893 90 c 4
 897.240234375 90.146484375 890.000030518 0 890 0 c 4
 689.000015259 0 443.000015259 0 164.000003815 0 c 4
 106.813888214 0 70.5408571102 27.9744996851 38.0000038147 75 c 28
 1.0732421875 128.364257812 7.77223863836 172.572238808 0 237 c 28
 -7.146484375 296.240234375 0 449.669748505 0 390 c 4
EndSplineSet
EndChar

StartChar: K
Encoding: 75 75 10
Width: 1054
VWidth: 0
Flags: HW
LayerCount: 2
Fore
SplineSet
104.000003815 627 m 4
 105.041946882 629.813246282 179.927262032 626.853102206 179.000003815 624 c 4
 140.000003815 504 106.667357753 372.338821492 86.0000038147 207 c 28
 81.5478515625 171.38671875 90.6210941746 145.378906675 116 120 c 28
 140.33203125 95.66796875 166.203136514 99.4717398165 200 93 c 28
 221.833007812 88.8193359375 256.232421875 87.0498046875 257 93 c 4
 281 279 305 390 341 615 c 4
 341.473632812 617.961914062 428.462890847 610.217452327 428 606 c 4
 401.000015259 360 377.000015259 276 350 90 c 4
 349.390531866 85.8014441191 403.072277875 91.76626465 437 93 c 28
 467.422851562 94.1064453125 514.775390625 93.0087890625 515 96 c 4
 533 336 527.000015259 372 563.000015259 609 c 4
 563.000015259 609 653.45703125 613.217773438 653 609 c 4
 626 360 632.000015259 312 614.000015259 108 c 4
 613.627113403 103.773778969 688.853169471 104.377664641 722 132 c 4
 740.000015259 147 761.243164062 215.80859375 782 285 c 4
 818 405 829.999969482 462 856.999969482 615 c 4
 856.999969482 615 941.873997931 601.151635132 940.999969482 597 c 4
 892.999969482 369 911 408 848 186 c 4
 830.829101562 125.4921875 783.520079184 35.3925078038 758 33 c 4
 662.000015259 24 609.933619195 18.0015506388 515 12 c 28
 406.306640625 5.12890625 332.000015259 0 236 0 c 4
 159.653416321 0 109.943430103 7.79307178532 47.0000038147 51 c 28
 8.2421875 77.60546875 1.92506839674 115.02833112 0 162 c 28
 -4.1044921875 262.145507812 10.1234217596 319.186439592 32.0000038147 417 c 28
 50.8974609375 501.4921875 74.0000038147 546 104.000003815 627 c 4
EndSplineSet
EndChar

StartChar: L
Encoding: 76 76 11
Width: 503
VWidth: 0
Flags: HW
LayerCount: 2
Fore
SplineSet
274.200195312 -0 m 29
 274.200195312 459 l 29
 269.520507812 517.5 280.200195312 579 262.200195312 609 c 4
 242.454101562 641.909179688 217.138671875 663.708007812 178.200195312 663 c 28
 139.579101562 662.297851562 111.428710938 641.911132812 97.2001953125 606 c 28
 82.3203125 568.446289062 94.9912109375 538.9765625 115.200195312 504 c 28
 128.560546875 480.875976562 166.250976562 479.94921875 175.200195312 471 c 4
 178.200195312 468 172.200195312 402 172.200195312 402 c 4
 124.200195312 399 65.8408203125 429.209960938 34.2001953125 483 c 28
 -0.2880859375 541.629882812 -4.765625 594.552734375 22.2001953125 657 c 28
 46.140625 712.440429688 88.984375 735.157226562 148.200195312 747 c 28
 204.96484375 758.352539062 243.2734375 741.939453125 292.200195312 711 c 28
 328.681640625 687.930664062 340.54296875 659.559570312 352.200195312 618 c 28
 368.342773438 560.448242188 357.690429688 524.669921875 361.200195312 465 c 29
 358.200195312 -0 l 29
 274.200195312 -0 l 29
EndSplineSet
EndChar

StartChar: M
Encoding: 77 77 12
Width: 1252
VWidth: 0
Flags: HW
LayerCount: 2
Fore
SplineSet
0 57 m 29
 146 270 l 29
 251 123 l 29
 374 267 l 29
 491 126 l 29
 602 270 l 29
 725 120 l 29
 839 276 l 29
 953 129 l 29
 1091 288 l 29
 1138.99996948 222 l 29
 946.999969482 0 l 29
 841.999969482 141 l 29
 731.000015259 0 l 29
 608 144 l 29
 494 0 l 29
 374 150 l 29
 251 0 l 29
 149 123 l 29
 62.0000038147 0 l 29
 0 57 l 29
EndSplineSet
EndChar

StartChar: N
Encoding: 78 78 13
Width: 930
VWidth: 0
Flags: HW
LayerCount: 2
Fore
SplineSet
0 642 m 28
 18.8359375 664.145507812 47.0000038147 657 74 651 c 4
 91.8410650411 647.03531832 89.5733817715 625.085322607 110 621 c 4
 125.000003815 618 142.002929688 605.2734375 179 612 c 4
 212 618 258.80078125 617.598632812 281 588 c 4
 299 564 292.060797614 549.948281779 296 525 c 28
 302.609375 483.139648438 292.402449285 456.404338649 308 417 c 28
 316.271484375 396.102539062 330.643564945 383.304786998 353 381 c 28
 448.462890625 371.158203125 498.467120558 391.188870613 599.000015259 387 c 4
 671.000015259 384 737.351320449 379.825084607 767 315 c 28
 818.1171875 203.234375 796.999969482 126 776 0 c 4
 774.46116047 -9.23305059789 752.267314449 -9.35605328746 752 0 c 4
 749.000015259 105 763.342411468 149.342622323 728.000015259 234 c 28
 708.612304688 280.439453125 672.035074849 297.684217571 623.000015259 309 c 28
 544.329101562 327.155273438 497.000015259 306 416 306 c 4
 350.972805921 306 306.290209787 295.772736721 251.000015259 330 c 28
 219.150390625 349.716796875 231.507465353 385.813434482 227 423 c 28
 222.072265625 463.65234375 239.108312482 488.88083277 227 528 c 28
 221.892578125 544.501953125 204.826177081 545.08693645 188.000003815 549 c 28
 153.641601562 556.990234375 133.189453125 560.455078125 98 558 c 28
 81.2890625 556.833984375 75.7206861226 538.976284757 59.0000038147 540 c 28
 34.205078125 541.517578125 12.4378521245 542.497273989 0 564 c 28
 -15.2314453125 590.33203125 -19.7092318668 618.828335508 0 642 c 28
EndSplineSet
EndChar

StartChar: O
Encoding: 79 79 14
Width: 1038
VWidth: 0
Flags: HW
LayerCount: 2
Fore
SplineSet
326 393 m 29
 323.000015259 471 l 29
 602.000015259 465 l 29
 605 387 l 29
 326 393 l 29
98 426 m 4
 74.3563459341 406.859900248 76.1457807828 369.160438174 98.0000038147 348 c 28
 158.578125 289.344726562 209.915039062 269.889648438 287 243 c 4
 416 198 497.366870462 199.32994033 641 234 c 4
 728.000015259 255 772.076615376 271.875578051 827 333 c 28
 855.151367188 364.330078125 851.22631561 406.544748279 826.999969482 441 c 28
 791.333007812 491.725585938 750.933882868 505.712552419 692.000015259 525 c 4
 527.000015259 579 383.000015259 576 272.000015259 525 c 4
 197.543941794 490.790452733 161.000003815 477 98 426 c 4
23 459 m 28
 89.689453125 535.176757812 164.000003815 573 239 603 c 4
 387.883790335 662.553519163 539.000015259 669 719.000015259 603 c 4
 810.961941713 569.280626967 874.999969482 507 920 450 c 4
 950.483890551 411.387098155 935.96336795 359.940040027 914 324 c 4
 847.999969482 216 796.999969482 183 692 153 c 4
 517.497306397 103.142073051 396.832238635 104.096388263 227 171 c 4
 128.000003815 210 62.4760747842 241.798482658 0 330 c 28
 -29.5390625 371.701171875 -10.6617792885 420.549515708 23 459 c 28
EndSplineSet
EndChar

StartChar: X
Encoding: 88 88 15
Width: 673
VWidth: 0
Flags: HW
LayerCount: 2
Fore
SplineSet
53 588 m 4
 47.3701171875 590.07421875 77 660 77 660 c 4
 170 645 198.83394703 648.155225332 257 603 c 28
 296.815429688 572.090820312 299.647367195 533.120107176 305 483 c 28
 312.8515625 409.4765625 290 294 290 294 c 4
 353 342 356.000015259 357 383 372 c 4
 430.906285533 398.614618115 473.448242188 411 518 411 c 4
 521 411 527 318 524 318 c 4
 485 318 450.702220146 317.241094611 413 294 c 28
 361.583984375 262.305664062 328.588942425 238.602507144 305 183 c 28
 276.537109375 115.909179688 287 105 287 -3 c 4
 287 -6 203 -3 203 -3 c 4
 206 120 224.739562309 118.31553626 200 189 c 28
 180.861328125 243.682617188 145.351544104 263.617161407 98 297 c 28
 65.0390625 320.237304688 35.890625 330 0 330 c 4
 -3 330 8 414 11 414 c 4
 61.3232421875 414 90.3468222379 400.036381364 134 375 c 28
 172.04296875 353.181640625 179 339 215 297 c 4
 217.760742188 293.778320312 230.454137463 414.316409353 224 489 c 28
 222.012695312 511.990234375 213.970502548 528.438130104 194 540 c 28
 143.728515625 569.104492188 110 567 53 588 c 4
EndSplineSet
EndChar

StartChar: Q
Encoding: 81 81 16
Width: 576
VWidth: 0
Flags: HW
LayerCount: 2
Fore
SplineSet
200.799804688 96 m 4
 286.19140625 94.220703125 357.909179688 154.955078125 365.799804688 240 c 4
 373.064453125 318.297851562 306.416992188 385.362304688 227.799804688 387 c 4
 147.529296875 388.671875 85.2177734375 325.944335938 77.7998046875 246 c 4
 70.810546875 170.670898438 125.163085938 97.576171875 200.799804688 96 c 4
215.799804688 510 m 4
 280.295898438 512.6875 331.725585938 565.4765625 329.799804688 630 c 4
 328.115234375 686.438476562 266.21484375 713.350585938 209.799804688 711 c 4
 158.524414062 708.86328125 112.268554688 672.296875 113.799804688 621 c 4
 115.553710938 562.234375 157.05859375 507.551757812 215.799804688 510 c 4
125.799804688 447 m 4
 128.655273438 447.920898438 23.7998046875 495 17.7998046875 600 c 4
 11.6123046875 708.280273438 113.586914062 781.732421875 221.799804688 789 c 4
 321.348632812 795.686523438 415.053710938 726.66015625 419.799804688 627 c 4
 425.799804688 501 305.091796875 450 311.799804688 450 c 4
 377.799804688 450 458.799804688 348 449.799804688 228 c 4
 440.270507812 100.940429688 343.036132812 6.7890625 215.799804688 0 c 4
 100.149414062 -6.1708984375 22.8603515625 90.4638671875 0 204 c 4
 -21.0634765625 308.6171875 32.7998046875 417 125.799804688 447 c 4
EndSplineSet
EndChar

StartChar: S
Encoding: 83 83 17
Width: 1000
VWidth: 0
Flags: H
LayerCount: 2
Fore
SplineSet
44.0000038147 429 m 4
 48.5283659588 437.336302315 126.383789062 398.662109375 125 396 c 4
 86 321 64.0544113076 263.469640943 89 183 c 28
 106.967773438 125.0390625 157.351566835 98.0216144388 218 96 c 28
 280.80859375 93.90625 314.000015259 108 359 174 c 4
 380.680402446 205.79793437 383 255 389 291 c 4
 389.986328125 296.918945312 485.166405027 293.995305723 485 291 c 4
 482.000015259 237 497.000015259 201 533 159 c 4
 564.477148267 122.27664479 589.751986208 89.59425785 638 93 c 28
 704.881835938 97.720703125 764.821126272 114.085822737 788 177 c 4
 808.999969482 234 803 288 770 390 c 4
 854 420 l 4
 881 348 919.999969482 246 890 162 c 4
 861.230595312 81.44558493 811.144056734 54.8132688297 722 21 c 4
 635.000015259 -12 551.000015259 0 509 36 c 4
 469.332028644 70.0011059525 434 150 434 147 c 4
 434 144 391.957561683 75.9717160165 341 42 c 4
 278.000015259 0 181.620069112 -17.8418963996 95.0000038147 24 c 28
 18.5556640625 60.9267578125 -2.39320200923 128.769575661 -12.9999961853 213 c 28
 -23.884765625 299.44140625 0 348 44.0000038147 429 c 4
EndSplineSet
EndChar

StartChar: R
Encoding: 82 82 18
Width: 784
VWidth: 0
Flags: HW
LayerCount: 2
Fore
SplineSet
281 537 m 24
 297.379882812 528.809570312 308.801757812 512.00390625 302 495 c 24
 294.98046875 477.450195312 273.90625 468.546875 257 477 c 24
 240.9921875 485.00390625 241.353515625 505.3828125 248 522 c 24
 253.25 535.125976562 268.35546875 543.322265625 281 537 c 24
548 645 m 0
 527 711 483.702885738 729.626479062 431 744 c 0
 398.000015259 753 328.417077726 759.606210082 269 738 c 24
 219.142578125 719.870117188 182.000003815 714 167 648 c 0
 167 648 548.909179688 642.141601562 548 645 c 0
230 -0 m 1
 143.000003815 0 l 0
 134.000003815 150 123.265498247 151.351519259 92 243 c 24
 71.5859375 302.837890625 53 324 12 384 c 0
 10.3076171875 386.4765625 96.0297001434 430.683439812 116 483 c 24
 128.94140625 516.90234375 104.000003815 534 83 570 c 0
 60.9892666378 607.73267891 41.0000038147 648 53 666 c 0
 91.0924895184 723.138752442 141.666035121 780.144441352 224 798 c 24
 348.967773438 825.1015625 434.822262919 827.424798804 551 774 c 24
 616.604492188 743.831054688 626.475734084 680.704119174 635 609 c 24
 647.249023438 505.963867188 626.000015259 450 602 345 c 0
 578.254441133 241.113246006 575 212.056640625 575 126 c 24
 575 80.3095703125 584.000015259 51 602 12 c 0
 527 0 l 0
 494.000015259 72 489.410777855 100.75292224 488 168 c 24
 485.850585938 270.4375 502.02010663 327.794008656 518 429 c 24
 526.630859375 483.66015625 545 492 551 567 c 0
 551.756835938 576.45703125 164.989257812 582.735351562 167 579 c 0
 188 540 189.702009161 532.800775566 191 501 c 24
 192.133789062 473.212890625 186.553901418 456.284073374 173 432 c 24
 157.657226562 404.510742188 119 367.7578125 119 372 c 0
 119 375 159.259765625 282.330078125 185 225 c 17
 207.229492188 132.32421875 212 150 230 -0 c 1
EndSplineSet
EndChar

StartChar: T
Encoding: 84 84 19
Width: 658
VWidth: 0
Flags: HW
LayerCount: 2
Fore
SplineSet
0 468 m 29
 0 555 l 29
 200.000015259 555 l 29
 203 756 l 29
 299.000015259 759 l 29
 292 552 l 29
 518.000015259 549 l 29
 515 468 l 29
 290 468 l 29
 284.000015259 0 l 29
 194.000015259 0 l 29
 194 468 l 29
 0 468 l 29
EndSplineSet
EndChar

StartChar: a
Encoding: 97 97 20
Width: 929
VWidth: 0
Flags: HW
LayerCount: 2
Fore
SplineSet
590 564 m 5
 589.907173571 542.250430415 342.023082714 518.232790464 341 558 c 5
 332 474 307.033522675 419.55702268 242 366 c 4
 191.000003815 324 140.168955719 308.657222801 117.099609375 244.83203125 c 28
 99.5322265625 196.23046875 102.808716552 132.841201652 152 117 c 28
 233.053710938 90.8984375 290.890362167 123.061987893 365 165 c 28
 447.805664062 211.859375 492.265474582 253.124108259 539 336 c 28
 583.755859375 415.368164062 581 474 590 564 c 5
84.099609375 778.83203125 m 4
 84.099609375 778.83203125 176.000003815 786 176.000003815 780 c 4
 176.000003815 737.588263657 187.419004298 706.905349901 221.000015259 681 c 28
 275.5390625 638.926757812 317.789110609 627.58335024 386.000015259 618 c 28
 462.609375 607.236328125 508.411145568 613.535097691 584.000015259 630 c 28
 628.993164062 639.80078125 657.505867496 650.406242386 689.000015259 684 c 28
 714.3046875 710.9921875 719.000015259 737.001655366 719.000015259 774 c 4
 719.000015259 777 798.099609375 775.83203125 798.099609375 775.83203125 c 4
 801.099609375 730.83203125 805.1435671 697.616202923 780.099609375 658.83203125 c 28
 751.499023438 614.540039062 671 582 671 579 c 4
 671 475.053710938 678.099609375 394.83203125 630.099609375 307.83203125 c 4
 574.147460938 206.418945312 513.71078615 142.862578521 405.099609375 82.83203125 c 28
 306.607421875 28.39453125 233.362333634 10.7941442267 122.000003815 27 c 28
 65.3623046875 35.2421875 40.8582068399 82.7274875574 26.0000038147 138 c 28
 8.8583984375 201.766601562 13.5183151942 249.08803152 47 306 c 28
 89.0361328125 377.453125 155.264591027 381.0390465 207.099609375 445.83203125 c 4
 243.099998474 490.831970215 252.099609375 489.541015625 252.099609375 562.83203125 c 4
 252.099609375 565.83203125 174.037176983 587.340872897 144.099609375 625.83203125 c 28
 104.75 676.424804688 84.099609375 718.83203125 84.099609375 778.83203125 c 4
EndSplineSet
EndChar

StartChar: b
Encoding: 98 98 21
Width: 1027
VWidth: 0
Flags: HW
LayerCount: 2
Fore
SplineSet
0 0 m 29
 0 630 l 29
 866 627 l 29
 883.999969482 0 l 29
 389 0 l 29
 383 96 l 29
 800 93 l 21
 799.8203125 215.752929688 789.231445312 401.890625 791 549 c 13
 74 549 l 29
 71 0 l 29
 0 0 l 29
EndSplineSet
EndChar

StartChar: d
Encoding: 100 100 22
Width: 1000
VWidth: 0
Flags: HW
LayerCount: 2
Fore
SplineSet
602 477 m 29
 374.000015259 363 l 29
 620 228 l 29
 755 378 l 29
 602 477 l 29
191.000003815 378 m 29
 59 435 l 29
 59.0000038147 321 l 29
 191.000003815 378 l 29
0 552 m 29
 287.000015259 405 l 29
 551 534 l 29
 443 618 l 29
 494.000015259 681 l 29
 874.999969482 384 l 29
 551.000015259 0 l 29
 485.000015259 60 l 29
 578.000015259 168 l 29
 284.000015259 327 l 29
 0 198 l 29
 0 552 l 29
EndSplineSet
EndChar

StartChar: e
Encoding: 101 101 23
Width: 798
VWidth: 0
Flags: HW
LayerCount: 2
Fore
SplineSet
317.000015259 606 m 28
 351.131835938 610.375976562 369.762325167 643.634746641 368 678 c 28
 366.549804688 706.28515625 339.092763963 726.601636405 311 723 c 28
 278.17578125 718.791992188 249.305182689 696.048853523 251 663 c 28
 252.7421875 629.034179688 283.265590504 601.675073749 317.000015259 606 c 28
0 588 m 29
 65.0000038147 597 l 29
 122 435 l 29
 287.000015259 429 l 29
 287.000015259 543 l 21
 254.000015259 552 192.377580276 563.840723252 179 612 c 28
 162.858398438 670.108398438 178.4308907 723.247738988 227 759 c 28
 279.900390625 797.940429688 338.742027808 804.908914746 395 771 c 28
 446.026367188 740.244140625 465.828868979 683.181843065 446 627 c 4
 428.000015259 576 398.000015259 558 356.000015259 546 c 13
 365.000015259 426 l 29
 536.000015259 420 l 29
 596 603 l 29
 665.000015259 588 l 29
 581 357 l 29
 368.000015259 363 l 29
 359 171 l 29
 479.000015259 18 l 29
 419.000015259 -18 l 29
 320.000015259 102 l 29
 230.000015259 -18 l 29
 161 24 l 29
 284 168 l 29
 281 360 l 29
 62.0000038147 363 l 29
 0 588 l 29
EndSplineSet
EndChar

StartChar: g
Encoding: 103 103 24
Width: 1045
VWidth: 0
Flags: HW
LayerCount: 2
Fore
SplineSet
0 519 m 29
 80 564 l 29
 398.000015259 78 l 29
 925.999969482 78 l 29
 931.999969482 0 l 29
 359.000015259 0 l 29
 0 519 l 29
EndSplineSet
EndChar

StartChar: h
Encoding: 104 104 25
Width: 1000
VWidth: 0
Flags: HW
LayerCount: 2
Fore
SplineSet
470 651 m 29
 482.000015259 105 l 29
 623 102 l 29
 620 651 l 29
 470 651 l 29
248 648 m 29
 254 105 l 29
 398 102 l 29
 389 648 l 29
 248 648 l 29
0 0 m 29
 0 102 l 29
 152.000003815 102 l 29
 152 654 l 29
 0 657 l 29
 0 735 l 29
 851 735 l 29
 854 654 l 29
 701 651 l 29
 722 99 l 29
 857 96 l 21
 856.999969482 51 860 54 857 0 c 13
 0 0 l 29
EndSplineSet
EndChar

StartChar: k
Encoding: 107 107 26
Width: 1054
VWidth: 0
Flags: HW
LayerCount: 2
Fore
SplineSet
104.000003815 627 m 4
 105.041946882 629.813246282 179.927262032 626.853102206 179.000003815 624 c 4
 140.000003815 504 106.667357753 372.338821492 86.0000038147 207 c 28
 81.5478515625 171.38671875 90.6210941746 145.378906675 116 120 c 28
 140.33203125 95.66796875 166.203136514 99.4717398165 200 93 c 28
 221.833007812 88.8193359375 256.232421875 87.0498046875 257 93 c 4
 281 279 305 390 341 615 c 4
 341.473632812 617.961914062 428.462890847 610.217452327 428 606 c 4
 401.000015259 360 377.000015259 276 350 90 c 4
 349.390531866 85.8014441191 403.072277875 91.76626465 437 93 c 28
 467.422851562 94.1064453125 514.775390625 93.0087890625 515 96 c 4
 533 336 527.000015259 372 563.000015259 609 c 4
 563.000015259 609 653.45703125 613.217773438 653 609 c 4
 626 360 632.000015259 312 614.000015259 108 c 4
 613.627113403 103.773778969 688.853169471 104.377664641 722 132 c 4
 740.000015259 147 761.243164062 215.80859375 782 285 c 4
 818 405 829.999969482 462 856.999969482 615 c 4
 856.999969482 615 941.873997931 601.151635132 940.999969482 597 c 4
 892.999969482 369 911 408 848 186 c 4
 830.829101562 125.4921875 783.520079184 35.3925078038 758 33 c 4
 662.000015259 24 609.933619195 18.0015506388 515 12 c 28
 406.306640625 5.12890625 332.000015259 0 236 0 c 4
 159.653416321 0 109.943430103 7.79307178532 47.0000038147 51 c 28
 8.2421875 77.60546875 1.92506839674 115.02833112 0 162 c 28
 -4.1044921875 262.145507812 10.1234217596 319.186439592 32.0000038147 417 c 28
 50.8974609375 501.4921875 74.0000038147 546 104.000003815 627 c 4
EndSplineSet
EndChar

StartChar: l
Encoding: 108 108 27
Width: 503
VWidth: 0
Flags: HW
LayerCount: 2
Fore
SplineSet
274.200195312 -0 m 25
 274.200195312 459 l 25
 269.520507812 517.5 280.200195312 579 262.200195312 609 c 0
 242.454101562 641.909179688 217.138671875 663.708007812 178.200195312 663 c 24
 139.579101562 662.297851562 111.428710938 641.911132812 97.2001953125 606 c 24
 82.3203125 568.446289062 94.9912109375 538.9765625 115.200195312 504 c 24
 128.560546875 480.875976562 166.250976562 479.94921875 175.200195312 471 c 0
 178.200195312 468 172.200195312 402 172.200195312 402 c 0
 124.200195312 399 65.8408203125 429.209960938 34.2001953125 483 c 24
 -0.2880859375 541.629882812 -4.765625 594.552734375 22.2001953125 657 c 24
 46.140625 712.440429688 88.984375 735.157226562 148.200195312 747 c 24
 204.96484375 758.352539062 243.2734375 741.939453125 292.200195312 711 c 24
 328.681640625 687.930664062 340.54296875 659.559570312 352.200195312 618 c 24
 368.342773438 560.448242188 357.690429688 524.669921875 361.200195312 465 c 25
 358.200195312 -0 l 25
 274.200195312 -0 l 25
EndSplineSet
EndChar

StartChar: m
Encoding: 109 109 28
Width: 1252
VWidth: 0
Flags: HW
LayerCount: 2
Fore
SplineSet
0 57 m 29
 146 270 l 29
 251 123 l 29
 374 267 l 29
 491 126 l 29
 602 270 l 29
 725 120 l 29
 839 276 l 29
 953 129 l 29
 1091 288 l 29
 1138.99996948 222 l 29
 946.999969482 0 l 29
 841.999969482 141 l 29
 731.000015259 0 l 29
 608 144 l 29
 494 0 l 29
 374 150 l 29
 251 0 l 29
 149 123 l 29
 62.0000038147 0 l 29
 0 57 l 29
EndSplineSet
EndChar

StartChar: n
Encoding: 110 110 29
Width: 930
VWidth: 0
Flags: HW
LayerCount: 2
Fore
SplineSet
0 642 m 28
 18.8359375 664.145507812 47.0000038147 657 74 651 c 4
 91.8410650411 647.03531832 89.5733817715 625.085322607 110 621 c 4
 125.000003815 618 142.002929688 605.2734375 179 612 c 4
 212 618 258.80078125 617.598632812 281 588 c 4
 299 564 292.060797614 549.948281779 296 525 c 28
 302.609375 483.139648438 292.402449285 456.404338649 308 417 c 28
 316.271484375 396.102539062 330.643564945 383.304786998 353 381 c 28
 448.462890625 371.158203125 498.467120558 391.188870613 599.000015259 387 c 4
 671.000015259 384 737.351320449 379.825084607 767 315 c 28
 818.1171875 203.234375 796.999969482 126 776 0 c 4
 774.46116047 -9.23305059789 752.267314449 -9.35605328746 752 0 c 4
 749.000015259 105 763.342411468 149.342622323 728.000015259 234 c 28
 708.612304688 280.439453125 672.035074849 297.684217571 623.000015259 309 c 28
 544.329101562 327.155273438 497.000015259 306 416 306 c 4
 350.972805921 306 306.290209787 295.772736721 251.000015259 330 c 28
 219.150390625 349.716796875 231.507465353 385.813434482 227 423 c 28
 222.072265625 463.65234375 239.108312482 488.88083277 227 528 c 28
 221.892578125 544.501953125 204.826177081 545.08693645 188.000003815 549 c 28
 153.641601562 556.990234375 133.189453125 560.455078125 98 558 c 28
 81.2890625 556.833984375 75.7206861226 538.976284757 59.0000038147 540 c 28
 34.205078125 541.517578125 12.4378521245 542.497273989 0 564 c 28
 -15.2314453125 590.33203125 -19.7092318668 618.828335508 0 642 c 28
EndSplineSet
EndChar

StartChar: o
Encoding: 111 111 30
Width: 1038
VWidth: 0
Flags: HW
LayerCount: 2
Fore
SplineSet
326 393 m 29
 323.000015259 471 l 29
 602.000015259 465 l 29
 605 387 l 29
 326 393 l 29
98 426 m 4
 74.3563459341 406.859900248 76.1457807828 369.160438174 98.0000038147 348 c 28
 158.578125 289.344726562 209.915039062 269.889648438 287 243 c 4
 416 198 497.366870462 199.32994033 641 234 c 4
 728.000015259 255 772.076615376 271.875578051 827 333 c 28
 855.151367188 364.330078125 851.22631561 406.544748279 826.999969482 441 c 28
 791.333007812 491.725585938 750.933882868 505.712552419 692.000015259 525 c 4
 527.000015259 579 383.000015259 576 272.000015259 525 c 4
 197.543941794 490.790452733 161.000003815 477 98 426 c 4
23 459 m 28
 89.689453125 535.176757812 164.000003815 573 239 603 c 4
 387.883790335 662.553519163 539.000015259 669 719.000015259 603 c 4
 810.961941713 569.280626967 874.999969482 507 920 450 c 4
 950.483890551 411.387098155 935.96336795 359.940040027 914 324 c 4
 847.999969482 216 796.999969482 183 692 153 c 4
 517.497306397 103.142073051 396.832238635 104.096388263 227 171 c 4
 128.000003815 210 62.4760747842 241.798482658 0 330 c 28
 -29.5390625 371.701171875 -10.6617792885 420.549515708 23 459 c 28
EndSplineSet
EndChar

StartChar: q
Encoding: 113 113 31
Width: 576
VWidth: 0
Flags: HW
LayerCount: 2
Fore
SplineSet
200.799804688 96 m 4
 286.19140625 94.220703125 357.909179688 154.955078125 365.799804688 240 c 4
 373.064453125 318.297851562 306.416992188 385.362304688 227.799804688 387 c 4
 147.529296875 388.671875 85.2177734375 325.944335938 77.7998046875 246 c 4
 70.810546875 170.670898438 125.163085938 97.576171875 200.799804688 96 c 4
215.799804688 510 m 4
 280.295898438 512.6875 331.725585938 565.4765625 329.799804688 630 c 4
 328.115234375 686.438476562 266.21484375 713.350585938 209.799804688 711 c 4
 158.524414062 708.86328125 112.268554688 672.296875 113.799804688 621 c 4
 115.553710938 562.234375 157.05859375 507.551757812 215.799804688 510 c 4
125.799804688 447 m 4
 128.655273438 447.920898438 23.7998046875 495 17.7998046875 600 c 4
 11.6123046875 708.280273438 113.586914062 781.732421875 221.799804688 789 c 4
 321.348632812 795.686523438 415.053710938 726.66015625 419.799804688 627 c 4
 425.799804688 501 305.091796875 450 311.799804688 450 c 4
 377.799804688 450 458.799804688 348 449.799804688 228 c 4
 440.270507812 100.940429688 343.036132812 6.7890625 215.799804688 0 c 4
 100.149414062 -6.1708984375 22.8603515625 90.4638671875 0 204 c 4
 -21.0634765625 308.6171875 32.7998046875 417 125.799804688 447 c 4
EndSplineSet
EndChar

StartChar: r
Encoding: 114 114 32
Width: 783
VWidth: 0
Flags: HW
LayerCount: 2
Fore
SplineSet
281 537 m 24
 297.379882812 528.809570312 308.801757812 512.00390625 302 495 c 24
 294.98046875 477.450195312 273.90625 468.546875 257 477 c 24
 240.9921875 485.00390625 241.353515625 505.3828125 248 522 c 24
 253.25 535.125976562 268.35546875 543.322265625 281 537 c 24
548 645 m 0
 527 711 483.702885738 729.626479062 431 744 c 0
 398.000015259 753 328.417077726 759.606210082 269 738 c 24
 219.142578125 719.870117188 182.000003815 714 167 648 c 0
 167 648 548.909179688 642.141601562 548 645 c 0
230 -0 m 1
 143.000003815 0 l 0
 134.000003815 150 123.265498247 151.351519259 92 243 c 24
 71.5859375 302.837890625 53 324 12 384 c 0
 10.3076171875 386.4765625 96.0297001434 430.683439812 116 483 c 24
 128.94140625 516.90234375 104.000003815 534 83 570 c 0
 60.9892666378 607.73267891 41.0000038147 648 53 666 c 0
 91.0924895184 723.138752442 141.666035121 780.144441352 224 798 c 24
 348.967773438 825.1015625 434.822262919 827.424798804 551 774 c 24
 616.604492188 743.831054688 626.475734084 680.704119174 635 609 c 24
 647.249023438 505.963867188 626.000015259 450 602 345 c 0
 578.254441133 241.113246006 575 212.056640625 575 126 c 24
 575 80.3095703125 584.000015259 51 602 12 c 0
 527 0 l 0
 494.000015259 72 489.410777855 100.75292224 488 168 c 24
 485.850585938 270.4375 502.02010663 327.794008656 518 429 c 24
 526.630859375 483.66015625 545 492 551 567 c 0
 551.756835938 576.45703125 164.989257812 582.735351562 167 579 c 0
 188 540 189.702009161 532.800775566 191 501 c 24
 192.133789062 473.212890625 186.553901418 456.284073374 173 432 c 24
 157.657226562 404.510742188 119 367.7578125 119 372 c 0
 119 375 159.259765625 282.330078125 185 225 c 17
 207.229492188 132.32421875 212 150 230 -0 c 1
EndSplineSet
EndChar

StartChar: s
Encoding: 115 115 33
Width: 1000
VWidth: 0
Flags: HW
LayerCount: 2
Fore
SplineSet
44.0000038147 429 m 4
 48.5283659588 437.336302315 126.383789062 398.662109375 125 396 c 4
 86 321 64.0544113076 263.469640943 89 183 c 28
 106.967773438 125.0390625 157.351566835 98.0216144388 218 96 c 28
 280.80859375 93.90625 314.000015259 108 359 174 c 4
 380.680402446 205.79793437 383 255 389 291 c 4
 389.986328125 296.918945312 485.166405027 293.995305723 485 291 c 4
 482.000015259 237 497.000015259 201 533 159 c 4
 564.477148267 122.27664479 589.751986208 89.59425785 638 93 c 28
 704.881835938 97.720703125 764.821126272 114.085822737 788 177 c 4
 808.999969482 234 803 288 770 390 c 4
 854 420 l 4
 881 348 919.999969482 246 890 162 c 4
 861.230595312 81.44558493 811.144056734 54.8132688297 722 21 c 4
 635.000015259 -12 551.000015259 0 509 36 c 4
 469.332028644 70.0011059525 434 150 434 147 c 4
 434 144 391.957561683 75.9717160165 341 42 c 4
 278.000015259 0 181.620069112 -17.8418963996 95.0000038147 24 c 28
 18.5556640625 60.9267578125 -2.39320200923 128.769575661 -12.9999961853 213 c 28
 -23.884765625 299.44140625 0 348 44.0000038147 429 c 4
EndSplineSet
EndChar

StartChar: t
Encoding: 116 116 34
Width: 658
VWidth: 0
Flags: HW
LayerCount: 2
Fore
SplineSet
0 468 m 29
 0 555 l 29
 200.000015259 555 l 29
 203 756 l 29
 299.000015259 759 l 29
 292 552 l 29
 518.000015259 549 l 29
 515 468 l 29
 290 468 l 29
 284.000015259 0 l 29
 194.000015259 0 l 29
 194 468 l 29
 0 468 l 29
EndSplineSet
EndChar

StartChar: w
Encoding: 119 119 35
Width: 533
VWidth: 0
Flags: HW
LayerCount: 2
Fore
SplineSet
206 546 m 28
 257.34375 559.040039062 316.685203403 595.06530804 299 645 c 28
 279.357421875 700.462890625 212.028324011 704.483383876 155 690 c 28
 115.947265625 680.08203125 96.5483038757 634.981259645 110 597 c 28
 124.153320312 557.037109375 164.909231462 535.56424926 206 546 c 28
239 0 m 21
 210 0 181 0 152 0 c 13
 158 477 l 21
 95.0000038147 477 40.1068465488 508.292781281 20 570 c 28
 -1.908203125 637.235351562 8.73717925702 710.473865754 71 744 c 28
 160.646484375 792.271484375 248.31663259 795.998373453 332 738 c 28
 398.76171875 691.729492188 420.235856522 600.78516383 374 534 c 4
 347.000015259 495 302 474 242 468 c 13
 239 0 l 21
EndSplineSet
EndChar

StartChar: x
Encoding: 120 120 36
Width: 673
VWidth: 0
Flags: HW
LayerCount: 2
Fore
SplineSet
53 588 m 4
 47.3701171875 590.07421875 77 660 77 660 c 4
 170 645 198.83394703 648.155225332 257 603 c 28
 296.815429688 572.090820312 299.647367195 533.120107176 305 483 c 28
 312.8515625 409.4765625 290 294 290 294 c 4
 353 342 356.000015259 357 383 372 c 4
 430.906285533 398.614618115 473.448242188 411 518 411 c 4
 521 411 527 318 524 318 c 4
 485 318 450.702220146 317.241094611 413 294 c 28
 361.583984375 262.305664062 328.588942425 238.602507144 305 183 c 28
 276.537109375 115.909179688 287 105 287 -3 c 4
 287 -6 203 -3 203 -3 c 4
 206 120 224.739562309 118.31553626 200 189 c 28
 180.861328125 243.682617188 145.351544104 263.617161407 98 297 c 28
 65.0390625 320.237304688 35.890625 330 0 330 c 4
 -3 330 8 414 11 414 c 4
 61.3232421875 414 90.3468222379 400.036381364 134 375 c 28
 172.04296875 353.181640625 179 339 215 297 c 4
 217.760742188 293.778320312 230.454137463 414.316409353 224 489 c 28
 222.012695312 511.990234375 213.970502548 528.438130104 194 540 c 28
 143.728515625 569.104492188 110 567 53 588 c 4
EndSplineSet
EndChar

StartChar: y
Encoding: 121 121 37
Width: 1023
VWidth: 0
Flags: HW
LayerCount: 2
Fore
SplineSet
0 390 m 4
 0 387 92.0000038147 384 92.0000038147 381 c 4
 92.0000038147 311.811180369 74.8463381579 262.911035747 95 192 c 28
 108.188476562 145.59765625 122.389648438 97.1005859375 173 96 c 5
 296.049804688 85.677734375 544.092773438 94.6689453125 536 93 c 5
 536.000015259 180 527.899409562 233.723636777 581.000015259 294 c 28
 628.487304688 347.904296875 686 345 758 345 c 5
 800 345 854.000976562 348.001953125 902 345 c 5
 904.994140625 344.8125 908.708007812 249 902 249 c 4
 851 249 772.999969482 255 713 252 c 5
 662.000015259 246 652.166418751 225.453566477 632 189 c 13
 629.66015625 151.559570312 623.00414651 92.8423235427 626 93 c 4
 683.000015259 96 806 87 893 90 c 4
 897.240234375 90.146484375 890.000030518 0 890 0 c 4
 689.000015259 0 443.000015259 0 164.000003815 0 c 4
 106.813888214 0 70.5408571102 27.9744996851 38.0000038147 75 c 28
 1.0732421875 128.364257812 7.77223863836 172.572238808 0 237 c 28
 -7.146484375 296.240234375 0 449.669748505 0 390 c 4
EndSplineSet
EndChar

StartChar: z
Encoding: 122 122 38
Width: 646
VWidth: 0
Flags: HW
LayerCount: 2
Fore
SplineSet
62 357 m 25
 65.0000038147 456 l 25
 497.000015259 459 l 25
 488 363 l 25
 62 357 l 25
44 90 m 25
 47.0000038147 186 l 25
 491 186 l 25
 485 93 l 25
 44 90 l 25
EndSplineSet
EndChar
